<?xml version="1.0" encoding="UTF-8"?>
<svg version="1.1" baseProfile="tiny" xmlns="http://www.w3.org/2000/svg" width="300" height="300">
<rect shape-rendering="optimizeSpeed"  x="0" y="0" width="300" height="300" fill="white" />
<rect shape-rendering="optimizeSpeed"  x="13" y="13" width="13" height="13" fill="black" />
<rect shape-rendering="optimizeSpeed"  x="26" y="13" width="13" height="13" fill="black" />
<rect shape-rendering="optimizeSpeed"  x="39" y="13" width="13" height="13" fill="black" />
<rect shape-rendering="optimizeSpeed"  x="52" y="13" width="13" height="13" fill="black" />
<rect shape-rendering="optimizeSpeed"  x="65" y="13" width="13" height="13" fill="black" />
<rect shape-rendering="optimizeSpeed"  x="78" y="13" width="13" height="13" fill="black" />
<rect shape-rendering="optimizeSpeed"  x="91" y="13" width="13" height="13" fill="black" />
<rect shape-rendering="optimizeSpeed"  x="117" y="13" width="13" height="13" fill="black" />
<rect shape-rendering="optimizeSpeed"  x="130" y="13" width="13" height="13" fill="black" />
<rect shape-rendering="optimizeSpeed"  x="169" y="13" width="13" height="13" fill="black" />
<rect shape-rendering="optimizeSpeed"  x="195" y="13" width="13" height="13" fill="black" />
<rect shape-rendering="optimizeSpeed"  x="208" y="13" width="13" height="13" fill="black" />
<rect shape-rendering="optimizeSpeed"  x="221" y="13" width="13" height="13" fill="black" />
<rect shape-rendering="optimizeSpeed"  x="234" y="13" width="13" height="13" fill="black" />
<rect shape-rendering="optimizeSpeed"  x="247" y="13" width="13" height="13" fill="black" />
<rect shape-rendering="optimizeSpeed"  x="260" y="13" width="13" height="13" fill="black" />
<rect shape-rendering="optimizeSpeed"  x="273" y="13" width="13" height="13" fill="black" />
<rect shape-rendering="optimizeSpeed"  x="13" y="26" width="13" height="13" fill="black" />
<rect shape-rendering="optimizeSpeed"  x="91" y="26" width="13" height="13" fill="black" />
<rect shape-rendering="optimizeSpeed"  x="130" y="26" width="13" height="13" fill="black" />
<rect shape-rendering="optimizeSpeed"  x="169" y="26" width="13" height="13" fill="black" />
<rect shape-rendering="optimizeSpeed"  x="195" y="26" width="13" height="13" fill="black" />
<rect shape-rendering="optimizeSpeed"  x="273" y="26" width="13" height="13" fill="black" />
<rect shape-rendering="optimizeSpeed"  x="13" y="39" width="13" height="13" fill="black" />
<rect shape-rendering="optimizeSpeed"  x="39" y="39" width="13" height="13" fill="black" />
<rect shape-rendering="optimizeSpeed"  x="52" y="39" width="13" height="13" fill="black" />
<rect shape-rendering="optimizeSpeed"  x="65" y="39" width="13" height="13" fill="black" />
<rect shape-rendering="optimizeSpeed"  x="91" y="39" width="13" height="13" fill="black" />
<rect shape-rendering="optimizeSpeed"  x="117" y="39" width="13" height="13" fill="black" />
<rect shape-rendering="optimizeSpeed"  x="143" y="39" width="13" height="13" fill="black" />
<rect shape-rendering="optimizeSpeed"  x="169" y="39" width="13" height="13" fill="black" />
<rect shape-rendering="optimizeSpeed"  x="195" y="39" width="13" height="13" fill="black" />
<rect shape-rendering="optimizeSpeed"  x="221" y="39" width="13" height="13" fill="black" />
<rect shape-rendering="optimizeSpeed"  x="234" y="39" width="13" height="13" fill="black" />
<rect shape-rendering="optimizeSpeed"  x="247" y="39" width="13" height="13" fill="black" />
<rect shape-rendering="optimizeSpeed"  x="273" y="39" width="13" height="13" fill="black" />
<rect shape-rendering="optimizeSpeed"  x="13" y="52" width="13" height="13" fill="black" />
<rect shape-rendering="optimizeSpeed"  x="39" y="52" width="13" height="13" fill="black" />
<rect shape-rendering="optimizeSpeed"  x="52" y="52" width="13" height="13" fill="black" />
<rect shape-rendering="optimizeSpeed"  x="65" y="52" width="13" height="13" fill="black" />
<rect shape-rendering="optimizeSpeed"  x="91" y="52" width="13" height="13" fill="black" />
<rect shape-rendering="optimizeSpeed"  x="117" y="52" width="13" height="13" fill="black" />
<rect shape-rendering="optimizeSpeed"  x="156" y="52" width="13" height="13" fill="black" />
<rect shape-rendering="optimizeSpeed"  x="195" y="52" width="13" height="13" fill="black" />
<rect shape-rendering="optimizeSpeed"  x="221" y="52" width="13" height="13" fill="black" />
<rect shape-rendering="optimizeSpeed"  x="234" y="52" width="13" height="13" fill="black" />
<rect shape-rendering="optimizeSpeed"  x="247" y="52" width="13" height="13" fill="black" />
<rect shape-rendering="optimizeSpeed"  x="273" y="52" width="13" height="13" fill="black" />
<rect shape-rendering="optimizeSpeed"  x="13" y="65" width="13" height="13" fill="black" />
<rect shape-rendering="optimizeSpeed"  x="39" y="65" width="13" height="13" fill="black" />
<rect shape-rendering="optimizeSpeed"  x="52" y="65" width="13" height="13" fill="black" />
<rect shape-rendering="optimizeSpeed"  x="65" y="65" width="13" height="13" fill="black" />
<rect shape-rendering="optimizeSpeed"  x="91" y="65" width="13" height="13" fill="black" />
<rect shape-rendering="optimizeSpeed"  x="117" y="65" width="13" height="13" fill="black" />
<rect shape-rendering="optimizeSpeed"  x="130" y="65" width="13" height="13" fill="black" />
<rect shape-rendering="optimizeSpeed"  x="143" y="65" width="13" height="13" fill="black" />
<rect shape-rendering="optimizeSpeed"  x="195" y="65" width="13" height="13" fill="black" />
<rect shape-rendering="optimizeSpeed"  x="221" y="65" width="13" height="13" fill="black" />
<rect shape-rendering="optimizeSpeed"  x="234" y="65" width="13" height="13" fill="black" />
<rect shape-rendering="optimizeSpeed"  x="247" y="65" width="13" height="13" fill="black" />
<rect shape-rendering="optimizeSpeed"  x="273" y="65" width="13" height="13" fill="black" />
<rect shape-rendering="optimizeSpeed"  x="13" y="78" width="13" height="13" fill="black" />
<rect shape-rendering="optimizeSpeed"  x="91" y="78" width="13" height="13" fill="black" />
<rect shape-rendering="optimizeSpeed"  x="195" y="78" width="13" height="13" fill="black" />
<rect shape-rendering="optimizeSpeed"  x="273" y="78" width="13" height="13" fill="black" />
<rect shape-rendering="optimizeSpeed"  x="13" y="91" width="13" height="13" fill="black" />
<rect shape-rendering="optimizeSpeed"  x="26" y="91" width="13" height="13" fill="black" />
<rect shape-rendering="optimizeSpeed"  x="39" y="91" width="13" height="13" fill="black" />
<rect shape-rendering="optimizeSpeed"  x="52" y="91" width="13" height="13" fill="black" />
<rect shape-rendering="optimizeSpeed"  x="65" y="91" width="13" height="13" fill="black" />
<rect shape-rendering="optimizeSpeed"  x="78" y="91" width="13" height="13" fill="black" />
<rect shape-rendering="optimizeSpeed"  x="91" y="91" width="13" height="13" fill="black" />
<rect shape-rendering="optimizeSpeed"  x="117" y="91" width="13" height="13" fill="black" />
<rect shape-rendering="optimizeSpeed"  x="143" y="91" width="13" height="13" fill="black" />
<rect shape-rendering="optimizeSpeed"  x="169" y="91" width="13" height="13" fill="black" />
<rect shape-rendering="optimizeSpeed"  x="195" y="91" width="13" height="13" fill="black" />
<rect shape-rendering="optimizeSpeed"  x="208" y="91" width="13" height="13" fill="black" />
<rect shape-rendering="optimizeSpeed"  x="221" y="91" width="13" height="13" fill="black" />
<rect shape-rendering="optimizeSpeed"  x="234" y="91" width="13" height="13" fill="black" />
<rect shape-rendering="optimizeSpeed"  x="247" y="91" width="13" height="13" fill="black" />
<rect shape-rendering="optimizeSpeed"  x="260" y="91" width="13" height="13" fill="black" />
<rect shape-rendering="optimizeSpeed"  x="273" y="91" width="13" height="13" fill="black" />
<rect shape-rendering="optimizeSpeed"  x="130" y="104" width="13" height="13" fill="black" />
<rect shape-rendering="optimizeSpeed"  x="143" y="104" width="13" height="13" fill="black" />
<rect shape-rendering="optimizeSpeed"  x="13" y="117" width="13" height="13" fill="black" />
<rect shape-rendering="optimizeSpeed"  x="26" y="117" width="13" height="13" fill="black" />
<rect shape-rendering="optimizeSpeed"  x="39" y="117" width="13" height="13" fill="black" />
<rect shape-rendering="optimizeSpeed"  x="52" y="117" width="13" height="13" fill="black" />
<rect shape-rendering="optimizeSpeed"  x="91" y="117" width="13" height="13" fill="black" />
<rect shape-rendering="optimizeSpeed"  x="117" y="117" width="13" height="13" fill="black" />
<rect shape-rendering="optimizeSpeed"  x="143" y="117" width="13" height="13" fill="black" />
<rect shape-rendering="optimizeSpeed"  x="182" y="117" width="13" height="13" fill="black" />
<rect shape-rendering="optimizeSpeed"  x="221" y="117" width="13" height="13" fill="black" />
<rect shape-rendering="optimizeSpeed"  x="234" y="117" width="13" height="13" fill="black" />
<rect shape-rendering="optimizeSpeed"  x="247" y="117" width="13" height="13" fill="black" />
<rect shape-rendering="optimizeSpeed"  x="273" y="117" width="13" height="13" fill="black" />
<rect shape-rendering="optimizeSpeed"  x="13" y="130" width="13" height="13" fill="black" />
<rect shape-rendering="optimizeSpeed"  x="26" y="130" width="13" height="13" fill="black" />
<rect shape-rendering="optimizeSpeed"  x="78" y="130" width="13" height="13" fill="black" />
<rect shape-rendering="optimizeSpeed"  x="104" y="130" width="13" height="13" fill="black" />
<rect shape-rendering="optimizeSpeed"  x="169" y="130" width="13" height="13" fill="black" />
<rect shape-rendering="optimizeSpeed"  x="208" y="130" width="13" height="13" fill="black" />
<rect shape-rendering="optimizeSpeed"  x="247" y="130" width="13" height="13" fill="black" />
<rect shape-rendering="optimizeSpeed"  x="13" y="143" width="13" height="13" fill="black" />
<rect shape-rendering="optimizeSpeed"  x="26" y="143" width="13" height="13" fill="black" />
<rect shape-rendering="optimizeSpeed"  x="52" y="143" width="13" height="13" fill="black" />
<rect shape-rendering="optimizeSpeed"  x="65" y="143" width="13" height="13" fill="black" />
<rect shape-rendering="optimizeSpeed"  x="78" y="143" width="13" height="13" fill="black" />
<rect shape-rendering="optimizeSpeed"  x="91" y="143" width="13" height="13" fill="black" />
<rect shape-rendering="optimizeSpeed"  x="117" y="143" width="13" height="13" fill="black" />
<rect shape-rendering="optimizeSpeed"  x="130" y="143" width="13" height="13" fill="black" />
<rect shape-rendering="optimizeSpeed"  x="169" y="143" width="13" height="13" fill="black" />
<rect shape-rendering="optimizeSpeed"  x="182" y="143" width="13" height="13" fill="black" />
<rect shape-rendering="optimizeSpeed"  x="195" y="143" width="13" height="13" fill="black" />
<rect shape-rendering="optimizeSpeed"  x="208" y="143" width="13" height="13" fill="black" />
<rect shape-rendering="optimizeSpeed"  x="221" y="143" width="13" height="13" fill="black" />
<rect shape-rendering="optimizeSpeed"  x="234" y="143" width="13" height="13" fill="black" />
<rect shape-rendering="optimizeSpeed"  x="273" y="143" width="13" height="13" fill="black" />
<rect shape-rendering="optimizeSpeed"  x="26" y="156" width="13" height="13" fill="black" />
<rect shape-rendering="optimizeSpeed"  x="39" y="156" width="13" height="13" fill="black" />
<rect shape-rendering="optimizeSpeed"  x="78" y="156" width="13" height="13" fill="black" />
<rect shape-rendering="optimizeSpeed"  x="104" y="156" width="13" height="13" fill="black" />
<rect shape-rendering="optimizeSpeed"  x="117" y="156" width="13" height="13" fill="black" />
<rect shape-rendering="optimizeSpeed"  x="130" y="156" width="13" height="13" fill="black" />
<rect shape-rendering="optimizeSpeed"  x="169" y="156" width="13" height="13" fill="black" />
<rect shape-rendering="optimizeSpeed"  x="182" y="156" width="13" height="13" fill="black" />
<rect shape-rendering="optimizeSpeed"  x="260" y="156" width="13" height="13" fill="black" />
<rect shape-rendering="optimizeSpeed"  x="13" y="169" width="13" height="13" fill="black" />
<rect shape-rendering="optimizeSpeed"  x="26" y="169" width="13" height="13" fill="black" />
<rect shape-rendering="optimizeSpeed"  x="39" y="169" width="13" height="13" fill="black" />
<rect shape-rendering="optimizeSpeed"  x="52" y="169" width="13" height="13" fill="black" />
<rect shape-rendering="optimizeSpeed"  x="65" y="169" width="13" height="13" fill="black" />
<rect shape-rendering="optimizeSpeed"  x="78" y="169" width="13" height="13" fill="black" />
<rect shape-rendering="optimizeSpeed"  x="91" y="169" width="13" height="13" fill="black" />
<rect shape-rendering="optimizeSpeed"  x="143" y="169" width="13" height="13" fill="black" />
<rect shape-rendering="optimizeSpeed"  x="156" y="169" width="13" height="13" fill="black" />
<rect shape-rendering="optimizeSpeed"  x="182" y="169" width="13" height="13" fill="black" />
<rect shape-rendering="optimizeSpeed"  x="221" y="169" width="13" height="13" fill="black" />
<rect shape-rendering="optimizeSpeed"  x="247" y="169" width="13" height="13" fill="black" />
<rect shape-rendering="optimizeSpeed"  x="273" y="169" width="13" height="13" fill="black" />
<rect shape-rendering="optimizeSpeed"  x="117" y="182" width="13" height="13" fill="black" />
<rect shape-rendering="optimizeSpeed"  x="130" y="182" width="13" height="13" fill="black" />
<rect shape-rendering="optimizeSpeed"  x="143" y="182" width="13" height="13" fill="black" />
<rect shape-rendering="optimizeSpeed"  x="182" y="182" width="13" height="13" fill="black" />
<rect shape-rendering="optimizeSpeed"  x="208" y="182" width="13" height="13" fill="black" />
<rect shape-rendering="optimizeSpeed"  x="247" y="182" width="13" height="13" fill="black" />
<rect shape-rendering="optimizeSpeed"  x="273" y="182" width="13" height="13" fill="black" />
<rect shape-rendering="optimizeSpeed"  x="13" y="195" width="13" height="13" fill="black" />
<rect shape-rendering="optimizeSpeed"  x="26" y="195" width="13" height="13" fill="black" />
<rect shape-rendering="optimizeSpeed"  x="39" y="195" width="13" height="13" fill="black" />
<rect shape-rendering="optimizeSpeed"  x="52" y="195" width="13" height="13" fill="black" />
<rect shape-rendering="optimizeSpeed"  x="65" y="195" width="13" height="13" fill="black" />
<rect shape-rendering="optimizeSpeed"  x="78" y="195" width="13" height="13" fill="black" />
<rect shape-rendering="optimizeSpeed"  x="91" y="195" width="13" height="13" fill="black" />
<rect shape-rendering="optimizeSpeed"  x="143" y="195" width="13" height="13" fill="black" />
<rect shape-rendering="optimizeSpeed"  x="182" y="195" width="13" height="13" fill="black" />
<rect shape-rendering="optimizeSpeed"  x="195" y="195" width="13" height="13" fill="black" />
<rect shape-rendering="optimizeSpeed"  x="221" y="195" width="13" height="13" fill="black" />
<rect shape-rendering="optimizeSpeed"  x="247" y="195" width="13" height="13" fill="black" />
<rect shape-rendering="optimizeSpeed"  x="260" y="195" width="13" height="13" fill="black" />
<rect shape-rendering="optimizeSpeed"  x="273" y="195" width="13" height="13" fill="black" />
<rect shape-rendering="optimizeSpeed"  x="13" y="208" width="13" height="13" fill="black" />
<rect shape-rendering="optimizeSpeed"  x="91" y="208" width="13" height="13" fill="black" />
<rect shape-rendering="optimizeSpeed"  x="130" y="208" width="13" height="13" fill="black" />
<rect shape-rendering="optimizeSpeed"  x="156" y="208" width="13" height="13" fill="black" />
<rect shape-rendering="optimizeSpeed"  x="169" y="208" width="13" height="13" fill="black" />
<rect shape-rendering="optimizeSpeed"  x="182" y="208" width="13" height="13" fill="black" />
<rect shape-rendering="optimizeSpeed"  x="195" y="208" width="13" height="13" fill="black" />
<rect shape-rendering="optimizeSpeed"  x="234" y="208" width="13" height="13" fill="black" />
<rect shape-rendering="optimizeSpeed"  x="13" y="221" width="13" height="13" fill="black" />
<rect shape-rendering="optimizeSpeed"  x="39" y="221" width="13" height="13" fill="black" />
<rect shape-rendering="optimizeSpeed"  x="52" y="221" width="13" height="13" fill="black" />
<rect shape-rendering="optimizeSpeed"  x="65" y="221" width="13" height="13" fill="black" />
<rect shape-rendering="optimizeSpeed"  x="91" y="221" width="13" height="13" fill="black" />
<rect shape-rendering="optimizeSpeed"  x="130" y="221" width="13" height="13" fill="black" />
<rect shape-rendering="optimizeSpeed"  x="143" y="221" width="13" height="13" fill="black" />
<rect shape-rendering="optimizeSpeed"  x="156" y="221" width="13" height="13" fill="black" />
<rect shape-rendering="optimizeSpeed"  x="195" y="221" width="13" height="13" fill="black" />
<rect shape-rendering="optimizeSpeed"  x="234" y="221" width="13" height="13" fill="black" />
<rect shape-rendering="optimizeSpeed"  x="273" y="221" width="13" height="13" fill="black" />
<rect shape-rendering="optimizeSpeed"  x="13" y="234" width="13" height="13" fill="black" />
<rect shape-rendering="optimizeSpeed"  x="39" y="234" width="13" height="13" fill="black" />
<rect shape-rendering="optimizeSpeed"  x="52" y="234" width="13" height="13" fill="black" />
<rect shape-rendering="optimizeSpeed"  x="65" y="234" width="13" height="13" fill="black" />
<rect shape-rendering="optimizeSpeed"  x="91" y="234" width="13" height="13" fill="black" />
<rect shape-rendering="optimizeSpeed"  x="117" y="234" width="13" height="13" fill="black" />
<rect shape-rendering="optimizeSpeed"  x="130" y="234" width="13" height="13" fill="black" />
<rect shape-rendering="optimizeSpeed"  x="143" y="234" width="13" height="13" fill="black" />
<rect shape-rendering="optimizeSpeed"  x="182" y="234" width="13" height="13" fill="black" />
<rect shape-rendering="optimizeSpeed"  x="221" y="234" width="13" height="13" fill="black" />
<rect shape-rendering="optimizeSpeed"  x="260" y="234" width="13" height="13" fill="black" />
<rect shape-rendering="optimizeSpeed"  x="13" y="247" width="13" height="13" fill="black" />
<rect shape-rendering="optimizeSpeed"  x="39" y="247" width="13" height="13" fill="black" />
<rect shape-rendering="optimizeSpeed"  x="52" y="247" width="13" height="13" fill="black" />
<rect shape-rendering="optimizeSpeed"  x="65" y="247" width="13" height="13" fill="black" />
<rect shape-rendering="optimizeSpeed"  x="91" y="247" width="13" height="13" fill="black" />
<rect shape-rendering="optimizeSpeed"  x="117" y="247" width="13" height="13" fill="black" />
<rect shape-rendering="optimizeSpeed"  x="130" y="247" width="13" height="13" fill="black" />
<rect shape-rendering="optimizeSpeed"  x="156" y="247" width="13" height="13" fill="black" />
<rect shape-rendering="optimizeSpeed"  x="182" y="247" width="13" height="13" fill="black" />
<rect shape-rendering="optimizeSpeed"  x="221" y="247" width="13" height="13" fill="black" />
<rect shape-rendering="optimizeSpeed"  x="234" y="247" width="13" height="13" fill="black" />
<rect shape-rendering="optimizeSpeed"  x="247" y="247" width="13" height="13" fill="black" />
<rect shape-rendering="optimizeSpeed"  x="13" y="260" width="13" height="13" fill="black" />
<rect shape-rendering="optimizeSpeed"  x="91" y="260" width="13" height="13" fill="black" />
<rect shape-rendering="optimizeSpeed"  x="117" y="260" width="13" height="13" fill="black" />
<rect shape-rendering="optimizeSpeed"  x="130" y="260" width="13" height="13" fill="black" />
<rect shape-rendering="optimizeSpeed"  x="156" y="260" width="13" height="13" fill="black" />
<rect shape-rendering="optimizeSpeed"  x="169" y="260" width="13" height="13" fill="black" />
<rect shape-rendering="optimizeSpeed"  x="195" y="260" width="13" height="13" fill="black" />
<rect shape-rendering="optimizeSpeed"  x="221" y="260" width="13" height="13" fill="black" />
<rect shape-rendering="optimizeSpeed"  x="234" y="260" width="13" height="13" fill="black" />
<rect shape-rendering="optimizeSpeed"  x="260" y="260" width="13" height="13" fill="black" />
<rect shape-rendering="optimizeSpeed"  x="273" y="260" width="13" height="13" fill="black" />
<rect shape-rendering="optimizeSpeed"  x="13" y="273" width="13" height="13" fill="black" />
<rect shape-rendering="optimizeSpeed"  x="26" y="273" width="13" height="13" fill="black" />
<rect shape-rendering="optimizeSpeed"  x="39" y="273" width="13" height="13" fill="black" />
<rect shape-rendering="optimizeSpeed"  x="52" y="273" width="13" height="13" fill="black" />
<rect shape-rendering="optimizeSpeed"  x="65" y="273" width="13" height="13" fill="black" />
<rect shape-rendering="optimizeSpeed"  x="78" y="273" width="13" height="13" fill="black" />
<rect shape-rendering="optimizeSpeed"  x="91" y="273" width="13" height="13" fill="black" />
<rect shape-rendering="optimizeSpeed"  x="117" y="273" width="13" height="13" fill="black" />
<rect shape-rendering="optimizeSpeed"  x="130" y="273" width="13" height="13" fill="black" />
<rect shape-rendering="optimizeSpeed"  x="156" y="273" width="13" height="13" fill="black" />
<rect shape-rendering="optimizeSpeed"  x="169" y="273" width="13" height="13" fill="black" />
<rect shape-rendering="optimizeSpeed"  x="208" y="273" width="13" height="13" fill="black" />
<rect shape-rendering="optimizeSpeed"  x="234" y="273" width="13" height="13" fill="black" />
<rect shape-rendering="optimizeSpeed"  x="260" y="273" width="13" height="13" fill="black" /></svg>